<svg id="Logo" xmlns="http://www.w3.org/2000/svg" viewBox="0 0 184 55"><style>.st0{fill:#fff}</style><path id="logos" class="st0" d="M37.1 10.7H26.6l5.3 9.2 5.2-9.2zm-11.8.8L20 20.7h10.5l-5.2-9.2zm18.4 9.2l-5.3-9.2-5.3 9.2h10.6zm-10.5 1.5l5.3 9.2 5.3-9.2H33.2zm-13.2 0l5.3 9.2 5.3-9.2H20zm-6.5 10H24L18.7 23l-5.2 9.2zm36.7 0L45 23l-5.3 9.2h10.5zM31.9 0l-5.3 9.2h10.5L31.9 0zM45 42.9l5.3-9.2H39.7l5.3 9.2zm-26.3 0l5.3-9.2H13.5l5.2 9.2zm-11.8.7h10.5l-5.3-9.2-5.2 9.2zm49.9 0l-5.3-9.2-5.3 9.2h10.6zm-10.5 1.6l5.3 9.2 5.3-9.2H46.3zm-13.1 0l5.3 9.2 5.3-9.2H33.2zm-21 9.2l5.2-9.2H6.9l5.3 9.2zm-11.9.7h10.5l-5.2-9.2-5.3 9.2zm26.3 0h10.5l-5.3-9.2-5.2 9.2zm13.1 0h10.5L45 45.9l-5.3 9.2zm18.4-9.2l-5.3 9.2h10.5l-5.2-9.2z"/><path class="st0" d="M74.8 16H77l3.4 8.6 3.4-8.6h2.3L82 26.3l4.6 10.9 8.7-21.4h2.6L87.7 40h-2.1l-5.1-11.9L75.4 40h-2.1L63.2 15.9h2.5l8.8 21.4 4.6-10.9L74.8 16zM105.3 40.3c-.8 0-1.6-.1-2.3-.4-.7-.3-1.3-.7-1.9-1.2-.5-.5-.9-1.1-1.2-1.8-.3-.7-.4-1.4-.4-2.2s.2-1.5.5-2.1.9-1.2 1.5-1.7c.7-.5 1.4-.8 2.3-1.1.9-.3 1.9-.4 3-.4.9 0 1.8.1 2.8.2.9.2 1.8.4 2.5.7v-1.6c0-1.6-.4-2.8-1.3-3.7s-2.1-1.4-3.7-1.4c-.9 0-1.8.2-2.8.5-1 .4-1.9.9-2.9 1.6l-.8-1.5c2.3-1.5 4.5-2.3 6.7-2.3s4 .6 5.2 1.9c1.3 1.2 1.9 3 1.9 5.2v8c0 .6.3 1 .9 1v2c-.4.1-.7.1-.9.1-.6 0-1-.1-1.4-.4-.3-.3-.5-.7-.5-1.2l-.1-1.4c-.8 1.1-1.8 1.9-3.1 2.4s-2.6.8-4 .8zm.6-1.7c1.2 0 2.3-.2 3.3-.7 1-.5 1.8-1.1 2.3-1.8.2-.2.4-.4.5-.7.1-.2.2-.5.2-.7v-2.9c-.8-.3-1.6-.5-2.4-.7s-1.8-.1-2.7-.1c-1.6 0-3 .3-4 1s-1.5 1.6-1.5 2.7c0 .5.1 1.1.3 1.5.2.5.5.9.9 1.2.4.4.8.6 1.3.8s1.2.4 1.8.4zM119.8 22.3l5.3 6.9.3.5.3-.5 5.3-6.9h2.5l-6.8 8.9 6.8 8.8H131l-5.3-6.9-.3-.5-.3.5-5.3 6.9h-2.5l6.8-8.8-6.8-8.9h2.5zM144.1 40.3c-1.3 0-2.5-.2-3.5-.7-1.1-.5-2-1.2-2.8-2s-1.4-1.8-1.8-2.9c-.4-1.1-.6-2.3-.6-3.5 0-1.2.2-2.4.7-3.5s1.1-2.1 1.8-2.9 1.7-1.5 2.8-2c1.1-.5 2.2-.7 3.5-.7 1.3 0 2.4.2 3.5.7 1.1.5 2 1.2 2.8 2s1.4 1.8 1.8 2.9.7 2.3.7 3.5c0 1.2-.2 2.4-.6 3.5s-1 2.1-1.8 2.9-1.7 1.5-2.8 2c-1.3.5-2.4.7-3.7.7zm-6.5-9.1c0 1 .2 1.9.5 2.8.3.8.8 1.6 1.4 2.2.6.6 1.3 1.2 2 1.5.8.4 1.6.5 2.5.5.9 0 1.7-.2 2.5-.6.8-.4 1.5-.9 2.1-1.5.6-.6 1.1-1.4 1.4-2.3.3-.9.5-1.8.5-2.8 0-1-.2-1.9-.5-2.8-.3-.9-.8-1.6-1.4-2.3-.6-.6-1.3-1.2-2.1-1.5-.8-.4-1.6-.6-2.5-.6-.9 0-1.7.2-2.5.6s-1.5.9-2 1.5c-.6.7-1.1 1.4-1.4 2.3-.3 1.1-.5 2-.5 3zM183.1 40h-2.3v-9.9c0-2.1-.3-3.6-1-4.6-.7-1-1.6-1.5-2.9-1.5-.7 0-1.3.1-1.9.4-.6.3-1.2.6-1.7 1.1-.5.5-1 1-1.3 1.6-.4.6-.7 1.3-.9 2.1V40h-2.3v-9.9c0-2.1-.3-3.6-1-4.6-.6-1-1.6-1.4-2.9-1.4-1.3 0-2.5.5-3.6 1.4-1 .9-1.8 2.2-2.2 3.7V40h-2.3V22.3h2.1v4c.7-1.4 1.7-2.4 2.9-3.2 1.2-.8 2.5-1.1 3.9-1.1 1.5 0 2.7.4 3.6 1.3.9.8 1.4 1.9 1.6 3.3 1.7-3 3.9-4.6 6.8-4.6 1 0 1.8.2 2.5.5s1.2.9 1.7 1.5c.4.7.7 1.5.9 2.4.2.9.3 2 .3 3.1V40z"/></svg>